<svg width="132" height="62" viewBox="0 0 132 62" fill="none" xmlns="http://www.w3.org/2000/svg">
<mask id="path-1-inside-1_105_19" fill="white">
<path d="M93 11H126V44H93V11Z"/>
</mask>
<path d="M126 11H128V9H126V11ZM93 13H126V9H93V13ZM124 11V44H128V11H124Z" fill="#FED32C" mask="url(#path-1-inside-1_105_19)"/>
<mask id="path-3-inside-2_105_19" fill="white">
<path d="M39 56H6V23H39V56Z"/>
</mask>
<path d="M6 56H4V58H6V56ZM39 54H6V58H39V54ZM8 56V23H4V56H8Z" fill="#FED32C" mask="url(#path-3-inside-2_105_19)"/>
<path d="M34.416 15.584C37.52 15.584 39.968 16.592 41.76 18.608C43.552 20.624 44.448 23.408 44.448 26.96C44.448 30.512 43.68 33.744 42.144 36.656C40.64 39.568 38.528 41.712 35.808 43.088C37.184 44.304 38.16 44.912 38.736 44.912C40.432 44.912 41.808 44.128 42.864 42.56C43.408 41.76 43.84 41.36 44.16 41.36C44.48 41.36 44.64 41.52 44.64 41.84C44.64 42.608 44.368 43.408 43.824 44.24C42.224 46.736 40 47.984 37.152 47.984C35.904 47.984 34.208 46.736 32.064 44.24C31.168 44.4 30.352 44.48 29.616 44.48C26.704 44.48 24.32 43.424 22.464 41.312C20.64 39.2 19.728 36.624 19.728 33.584C19.728 28.912 20.88 24.832 23.184 21.344C24.304 19.584 25.824 18.192 27.744 17.168C29.696 16.112 31.92 15.584 34.416 15.584ZM33.12 17.792C29.696 17.792 27.168 19.056 25.536 21.584C23.936 24.112 23.136 27.456 23.136 31.616C23.136 33.344 23.488 34.96 24.192 36.464C24.896 37.968 25.808 39.216 26.928 40.208C27.856 39.28 28.816 38.816 29.808 38.816C30.8 38.816 32.288 39.744 34.272 41.6C36.352 40.928 37.936 39.552 39.024 37.472C40.112 35.36 40.656 32.688 40.656 29.456C40.656 26.224 39.952 23.472 38.544 21.2C37.136 18.928 35.328 17.792 33.12 17.792ZM46.7344 39.824L47.0224 34.448C47.0224 31.024 47.1824 29.152 47.5024 28.832C47.8224 28.512 48.3824 28.048 49.1824 27.44C50.0144 26.8 50.6064 26.48 50.9584 26.48C51.3424 26.48 51.5824 26.544 51.6784 26.672C51.7744 26.8 51.8224 27.056 51.8224 27.44C51.8224 28.816 51.5184 30.208 50.9104 31.616C50.4304 34.56 50.1904 36.976 50.1904 38.864C50.1904 40.752 50.4944 41.696 51.1024 41.696C51.8384 41.696 52.7024 41.056 53.6944 39.776C54.6864 38.496 55.6784 36.592 56.6704 34.064C56.9584 30.864 57.1824 29.136 57.3424 28.88C57.5344 28.624 57.9824 28.16 58.6864 27.488C59.3904 26.816 59.9664 26.48 60.4144 26.48C60.8944 26.48 61.1344 27.088 61.1344 28.304C61.1344 28.624 61.0384 29.248 60.8464 30.176C60.6864 31.104 60.4944 31.776 60.2704 32.192C59.9184 33.088 59.7424 35.856 59.7424 40.496C59.7424 41.36 59.8384 41.792 60.0304 41.792C60.5744 41.76 61.3264 41.088 62.2864 39.776C63.2464 38.432 64.1904 36.72 65.1184 34.64C66.0784 32.56 66.6544 31.52 66.8464 31.52C67.0704 31.52 67.1824 31.648 67.1824 31.904C67.1824 32.8 66.7184 34.224 65.7904 36.176C63.2624 41.552 61.1344 44.24 59.4064 44.24C58.1584 44.24 57.2144 43.984 56.5744 43.472C56.3504 43.248 56.2384 42.56 56.2384 41.408C56.2384 40.256 56.2864 38.976 56.3824 37.568C55.3584 39.744 54.3344 41.408 53.3104 42.56C52.2864 43.68 51.1344 44.24 49.8544 44.24C48.6064 44.24 47.7744 43.904 47.3584 43.232C46.9424 42.56 46.7344 41.424 46.7344 39.824ZM70.1216 44.24C68.3296 44.24 66.9056 43.568 65.8496 42.224C64.7936 40.848 64.2656 39.296 64.2656 37.568C64.2656 34.08 65.0016 31.44 66.4736 29.648C67.9456 27.856 69.8496 26.96 72.1856 26.96C73.2736 26.96 74.1696 27.264 74.8736 27.872C75.5776 28.448 75.9296 29.248 75.9296 30.272C75.9296 32.192 75.1136 33.808 73.4816 35.12C71.8816 36.4 69.9136 37.072 67.5776 37.136C67.7056 38.384 68.1216 39.472 68.8256 40.4C69.5616 41.296 70.4096 41.744 71.3696 41.744C72.3296 41.744 73.1936 41.52 73.9616 41.072C74.7296 40.624 75.4336 39.984 76.0736 39.152C77.4176 37.392 78.5696 35.392 79.5296 33.152C79.7856 32.576 79.9776 32.16 80.1056 31.904C80.2656 31.648 80.4256 31.52 80.5856 31.52C80.7776 31.52 80.8736 31.648 80.8736 31.904C80.8736 33.504 79.8976 35.904 77.9456 39.104C75.8336 42.528 73.2256 44.24 70.1216 44.24ZM67.5776 35.984C69.4656 35.664 70.8416 35.056 71.7056 34.16C72.6016 33.264 73.0496 32.096 73.0496 30.656C73.0496 29.216 72.5856 28.496 71.6576 28.496C70.5376 28.496 69.5936 29.28 68.8256 30.848C68.0576 32.384 67.6416 34.096 67.5776 35.984ZM82.5041 31.472L85.1441 31.184C85.4001 31.184 85.6241 31.328 85.8161 31.616C86.0081 31.904 86.1041 32.208 86.1041 32.528C86.1041 32.848 85.9921 33.936 85.7681 35.792C85.5761 37.648 85.4801 39.12 85.4801 40.208C85.4801 41.264 85.5761 41.792 85.7681 41.792C86.3121 41.76 87.0641 41.088 88.0241 39.776C88.9841 38.432 89.9281 36.72 90.8561 34.64C91.8161 32.56 92.3921 31.52 92.5841 31.52C92.8081 31.52 92.9201 31.648 92.9201 31.904C92.9201 32.8 92.4561 34.224 91.5281 36.176C89.0001 41.552 86.8721 44.24 85.1441 44.24C83.8961 44.24 82.9521 43.984 82.3121 43.472C82.0881 43.248 81.9761 41.856 81.9761 39.296C81.9761 36.736 82.2481 34.544 82.7921 32.72C80.9361 32.72 79.6401 32.128 78.9041 30.944C78.5201 30.336 78.3281 29.648 78.3281 28.88C78.3281 28.112 78.4881 27.44 78.8081 26.864C79.1281 26.288 79.5761 26 80.1521 26C80.7601 26 81.3041 26.32 81.7841 26.96C82.2961 27.568 82.5521 28.256 82.5521 29.024C82.5521 29.792 82.3281 30.56 81.8801 31.328C82.0081 31.424 82.2161 31.472 82.5041 31.472ZM104.051 44.24C102.803 44.24 101.859 43.984 101.219 43.472C100.995 43.248 100.883 42.688 100.883 41.792C100.883 40.864 100.915 39.632 100.979 38.096C100.147 40.176 99.3145 41.728 98.4825 42.752C97.6825 43.744 96.6425 44.24 95.3625 44.24C94.0825 44.24 92.9625 43.648 92.0025 42.464C91.0425 41.248 90.5625 39.36 90.5625 36.8C90.5625 34.208 91.2825 31.92 92.7225 29.936C94.1945 27.952 96.1145 26.96 98.4825 26.96C99.5065 26.96 100.659 27.632 101.939 28.976C102.195 28.624 102.643 28.208 103.283 27.728C103.955 27.216 104.515 26.96 104.963 26.96C105.443 26.96 105.683 27.568 105.683 28.784C105.683 29.104 105.587 29.728 105.395 30.656C105.235 31.584 105.043 32.256 104.819 32.672C104.531 33.408 104.387 36.016 104.387 40.496C104.387 41.36 104.483 41.792 104.674 41.792C105.219 41.76 105.971 41.088 106.931 39.776C107.891 38.432 108.835 36.72 109.763 34.64C110.723 32.56 111.299 31.52 111.491 31.52C111.715 31.52 111.827 31.648 111.827 31.904C111.827 32.8 111.363 34.224 110.435 36.176C107.907 41.552 105.779 44.24 104.051 44.24ZM98.1945 28.88C97.2985 28.88 96.3385 29.552 95.3145 30.896C94.3225 32.208 93.8265 33.76 93.8265 35.552C93.8265 37.344 94.0825 38.816 94.5945 39.968C95.1385 41.12 95.8425 41.696 96.7065 41.696C97.7625 41.696 99.3145 39.056 101.363 33.776C101.395 33.52 101.427 33.088 101.459 32.48C101.523 31.84 101.571 31.36 101.603 31.04C101.315 30.528 100.803 30.048 100.067 29.6C99.3625 29.12 98.7385 28.88 98.1945 28.88Z" fill="#332885"/>
</svg>
