<svg width="675" height="922" viewBox="0 0 675 922" fill="none" xmlns="http://www.w3.org/2000/svg">
<rect width="595" height="842" transform="translate(40 40)" fill="white"/>
<mask id="path-1-inside-1_0_1" fill="white">
<path d="M417 374H511V469H417V374Z"/>
</mask>
<path d="M511 374H515V370H511V374ZM417 378H511V370H417V378ZM507 374V469H515V374H507Z" fill="#FED32C" mask="url(#path-1-inside-1_0_1)"/>
<mask id="path-3-inside-2_0_1" fill="white">
<path d="M220 515H126V421H220V515Z"/>
</mask>
<path d="M126 515H122V519H126V515ZM220 511H126V519H220V511ZM130 515V421H122V515H130Z" fill="#FED32C" mask="url(#path-3-inside-2_0_1)"/>
<path d="M232.776 393.224C241.053 393.224 247.581 395.912 252.36 401.288C257.139 406.664 259.528 414.088 259.528 423.56C259.528 433.032 257.48 441.651 253.384 449.416C249.373 457.181 243.741 462.899 236.488 466.568C240.157 469.811 242.76 471.432 244.296 471.432C248.819 471.432 252.488 469.341 255.304 465.16C256.755 463.027 257.907 461.96 258.76 461.96C259.613 461.96 260.04 462.387 260.04 463.24C260.04 465.288 259.315 467.421 257.864 469.64C253.597 476.296 247.667 479.624 240.072 479.624C236.744 479.624 232.221 476.296 226.504 469.64C224.115 470.067 221.939 470.28 219.976 470.28C212.211 470.28 205.853 467.464 200.904 461.832C196.04 456.2 193.608 449.331 193.608 441.224C193.608 428.765 196.68 417.885 202.824 408.584C205.811 403.891 209.864 400.179 214.984 397.448C220.189 394.632 226.12 393.224 232.776 393.224ZM229.32 399.112C220.189 399.112 213.448 402.483 209.096 409.224C204.829 415.965 202.696 424.883 202.696 435.976C202.696 440.584 203.635 444.893 205.512 448.904C207.389 452.915 209.821 456.243 212.808 458.888C215.283 456.413 217.843 455.176 220.488 455.176C223.133 455.176 227.101 457.651 232.392 462.6C237.939 460.808 242.163 457.139 245.064 451.592C247.965 445.96 249.416 438.835 249.416 430.216C249.416 421.597 247.539 414.259 243.784 408.2C240.029 402.141 235.208 399.112 229.32 399.112ZM265.625 457.864L266.393 443.528C266.393 434.397 266.82 429.405 267.673 428.552C268.526 427.699 270.02 426.461 272.153 424.84C274.372 423.133 275.95 422.28 276.889 422.28C277.913 422.28 278.553 422.451 278.809 422.792C279.065 423.133 279.193 423.816 279.193 424.84C279.193 428.509 278.382 432.221 276.761 435.976C275.481 443.827 274.841 450.269 274.841 455.304C274.841 460.339 275.652 462.856 277.273 462.856C279.236 462.856 281.54 461.149 284.185 457.736C286.83 454.323 289.476 449.245 292.121 442.504C292.889 433.971 293.486 429.363 293.913 428.68C294.425 427.997 295.62 426.76 297.497 424.968C299.374 423.176 300.91 422.28 302.105 422.28C303.385 422.28 304.025 423.901 304.025 427.144C304.025 427.997 303.769 429.661 303.257 432.136C302.83 434.611 302.318 436.403 301.721 437.512C300.782 439.901 300.313 447.283 300.313 459.656C300.313 461.96 300.569 463.112 301.081 463.112C302.532 463.027 304.537 461.235 307.097 457.736C309.657 454.152 312.174 449.587 314.649 444.04C317.209 438.493 318.745 435.72 319.257 435.72C319.854 435.72 320.153 436.061 320.153 436.744C320.153 439.133 318.916 442.931 316.441 448.136C309.7 462.472 304.025 469.64 299.417 469.64C296.089 469.64 293.572 468.957 291.865 467.592C291.268 466.995 290.969 465.16 290.969 462.088C290.969 459.016 291.097 455.603 291.353 451.848C288.622 457.651 285.892 462.088 283.161 465.16C280.43 468.147 277.358 469.64 273.945 469.64C270.617 469.64 268.398 468.744 267.289 466.952C266.18 465.16 265.625 462.131 265.625 457.864ZM327.991 469.64C323.212 469.64 319.415 467.848 316.599 464.264C313.783 460.595 312.375 456.456 312.375 451.848C312.375 442.547 314.338 435.507 318.263 430.728C322.188 425.949 327.266 423.56 333.495 423.56C336.396 423.56 338.786 424.371 340.663 425.992C342.54 427.528 343.479 429.661 343.479 432.392C343.479 437.512 341.303 441.821 336.951 445.32C332.684 448.733 327.436 450.525 321.207 450.696C321.548 454.024 322.658 456.925 324.535 459.4C326.498 461.789 328.759 462.984 331.319 462.984C333.879 462.984 336.183 462.387 338.231 461.192C340.279 459.997 342.156 458.291 343.863 456.072C347.447 451.379 350.519 446.045 353.079 440.072C353.762 438.536 354.274 437.427 354.615 436.744C355.042 436.061 355.468 435.72 355.895 435.72C356.407 435.72 356.663 436.061 356.663 436.744C356.663 441.011 354.06 447.411 348.855 455.944C343.223 465.075 336.268 469.64 327.991 469.64ZM321.207 447.624C326.242 446.771 329.911 445.149 332.215 442.76C334.604 440.371 335.799 437.256 335.799 433.416C335.799 429.576 334.562 427.656 332.087 427.656C329.1 427.656 326.583 429.747 324.535 433.928C322.487 438.024 321.378 442.589 321.207 447.624ZM361.011 435.592L368.051 434.824C368.734 434.824 369.331 435.208 369.843 435.976C370.355 436.744 370.611 437.555 370.611 438.408C370.611 439.261 370.312 442.163 369.715 447.112C369.203 452.061 368.947 455.987 368.947 458.888C368.947 461.704 369.203 463.112 369.715 463.112C371.166 463.027 373.171 461.235 375.731 457.736C378.291 454.152 380.808 449.587 383.283 444.04C385.843 438.493 387.379 435.72 387.891 435.72C388.488 435.72 388.787 436.061 388.787 436.744C388.787 439.133 387.55 442.931 385.075 448.136C378.334 462.472 372.659 469.64 368.051 469.64C364.723 469.64 362.206 468.957 360.499 467.592C359.902 466.995 359.603 463.283 359.603 456.456C359.603 449.629 360.328 443.784 361.779 438.92C356.83 438.92 353.374 437.341 351.411 434.184C350.387 432.563 349.875 430.728 349.875 428.68C349.875 426.632 350.302 424.84 351.155 423.304C352.008 421.768 353.203 421 354.739 421C356.36 421 357.811 421.853 359.091 423.56C360.456 425.181 361.139 427.016 361.139 429.064C361.139 431.112 360.542 433.16 359.347 435.208C359.688 435.464 360.243 435.592 361.011 435.592ZM418.468 469.64C415.14 469.64 412.623 468.957 410.916 467.592C410.319 466.995 410.02 465.501 410.02 463.112C410.02 460.637 410.105 457.352 410.276 453.256C408.057 458.803 405.839 462.941 403.62 465.672C401.487 468.317 398.713 469.64 395.3 469.64C391.887 469.64 388.9 468.061 386.34 464.904C383.78 461.661 382.5 456.627 382.5 449.8C382.5 442.888 384.42 436.787 388.26 431.496C392.185 426.205 397.305 423.56 403.62 423.56C406.351 423.56 409.423 425.352 412.836 428.936C413.519 427.997 414.713 426.888 416.42 425.608C418.212 424.243 419.705 423.56 420.9 423.56C422.18 423.56 422.82 425.181 422.82 428.424C422.82 429.277 422.564 430.941 422.052 433.416C421.625 435.891 421.113 437.683 420.516 438.792C419.748 440.755 419.364 447.709 419.364 459.656C419.364 461.96 419.62 463.112 420.132 463.112C421.583 463.027 423.588 461.235 426.148 457.736C428.708 454.152 431.225 449.587 433.7 444.04C436.26 438.493 437.796 435.72 438.308 435.72C438.905 435.72 439.204 436.061 439.204 436.744C439.204 439.133 437.967 442.931 435.492 448.136C428.751 462.472 423.076 469.64 418.468 469.64ZM402.852 428.68C400.463 428.68 397.903 430.472 395.172 434.056C392.527 437.555 391.204 441.693 391.204 446.472C391.204 451.251 391.887 455.176 393.252 458.248C394.703 461.32 396.58 462.856 398.884 462.856C401.7 462.856 405.839 455.816 411.3 441.736C411.385 441.053 411.471 439.901 411.556 438.28C411.727 436.573 411.855 435.293 411.94 434.44C411.172 433.075 409.807 431.795 407.844 430.6C405.967 429.32 404.303 428.68 402.852 428.68Z" fill="#332885"/>
<rect x="40" y="8" width="38.8594" height="26" rx="2" fill="white"/>
<rect x="40.5" y="8.5" width="37.8594" height="25" rx="1.5" stroke="black" stroke-opacity="0.14902"/>
<path d="M45.2969 24H44.2813L47.2188 16H48.2188L51.1563 24H50.1406L47.75 17.2656H47.6875L45.2969 24ZM45.6719 20.875H49.7656V21.7344H45.6719V20.875ZM52.0742 22.3594V21.5625L55.5898 16H56.168V17.2344H55.7773L53.1211 21.4375V21.5H57.8555V22.3594H52.0742ZM55.8398 24V22.1172V21.7461V16H56.7617V24H55.8398ZM65.8662 19.5703V20.4297H62.3662V19.5703H65.8662ZM73.3789 16V24H72.4102V17.0156H72.3633L70.4102 18.3125V17.3281L72.4102 16H73.3789Z" fill="black"/>
</svg>
